<?xml version="1.0" encoding="utf-8" standalone="no"?>
<!DOCTYPE svg PUBLIC "-//W3C//DTD SVG 1.1//EN"
  "http://www.w3.org/Graphics/SVG/1.1/DTD/svg11.dtd">
<!-- Created with matplotlib (https://matplotlib.org/) -->
<svg height="576pt" version="1.1" viewBox="0 0 576 576" width="576pt" xmlns="http://www.w3.org/2000/svg" xmlns:xlink="http://www.w3.org/1999/xlink">
 <metadata>
  <rdf:RDF xmlns:cc="http://creativecommons.org/ns#" xmlns:dc="http://purl.org/dc/elements/1.1/" xmlns:rdf="http://www.w3.org/1999/02/22-rdf-syntax-ns#">
   <cc:Work>
    <dc:type rdf:resource="http://purl.org/dc/dcmitype/StillImage"/>
    <dc:date>2021-06-30T21:55:44.337552</dc:date>
    <dc:format>image/svg+xml</dc:format>
    <dc:creator>
     <cc:Agent>
      <dc:title>Matplotlib v3.3.4, https://matplotlib.org/</dc:title>
     </cc:Agent>
    </dc:creator>
   </cc:Work>
  </rdf:RDF>
 </metadata>
 <defs>
  <style type="text/css">*{stroke-linecap:butt;stroke-linejoin:round;}</style>
 </defs>
 <g id="figure_1">
  <g id="patch_1">
   <path d="M 0 576 
L 576 576 
L 576 0 
L 0 0 
z
" style="fill:#ffffff;"/>
  </g>
  <g id="patch_2">
   <path d="M 72 469.44 
L 429.12 469.44 
L 429.12 112.32 
L 72 112.32 
z
" style="fill:#ffffff;"/>
  </g>
  <g id="pane3d_1">
   <g id="patch_3">
    <path d="M 98.965023 381.385653 
L 216.89771 282.532136 
L 215.258333 139.967693 
L 91.681958 230.148103 
" style="fill:#f2f2f2;opacity:0.5;stroke:#f2f2f2;stroke-linejoin:miter;"/>
   </g>
  </g>
  <g id="pane3d_2">
   <g id="patch_4">
    <path d="M 216.89771 282.532136 
L 406.137594 337.536699 
L 412.890898 190.061788 
L 215.258333 139.967693 
" style="fill:#e6e6e6;opacity:0.5;stroke:#e6e6e6;stroke-linejoin:miter;"/>
   </g>
  </g>
  <g id="pane3d_3">
   <g id="patch_5">
    <path d="M 98.965023 381.385653 
L 299.568543 446.902762 
L 406.137594 337.536699 
L 216.89771 282.532136 
" style="fill:#ececec;opacity:0.5;stroke:#ececec;stroke-linejoin:miter;"/>
   </g>
  </g>
  <g id="axis3d_1">
   <g id="line2d_1">
    <path d="M 98.965023 381.385653 
L 299.568543 446.902762 
" style="fill:none;stroke:#000000;stroke-linecap:square;stroke-width:0.8;"/>
   </g>
   <g id="Line3DCollection_1">
    <path d="M 120.283455 388.348253 
L 237.088004 288.400657 
L 236.304323 145.302239 
" style="fill:none;stroke:#b0b0b0;stroke-width:0.8;"/>
    <path d="M 158.887194 400.956234 
L 273.600633 299.013437 
L 274.388481 154.955462 
" style="fill:none;stroke:#b0b0b0;stroke-width:0.8;"/>
    <path d="M 198.299302 413.828228 
L 310.813836 309.829846 
L 313.235289 164.801996 
" style="fill:none;stroke:#b0b0b0;stroke-width:0.8;"/>
    <path d="M 238.545438 426.972616 
L 348.74797 320.855801 
L 352.867886 174.847704 
" style="fill:none;stroke:#b0b0b0;stroke-width:0.8;"/>
    <path d="M 279.652361 440.398137 
L 387.424191 332.097452 
L 393.310358 185.098692 
" style="fill:none;stroke:#b0b0b0;stroke-width:0.8;"/>
   </g>
   <g id="xtick_1">
    <g id="line2d_2">
     <path d="M 121.300786 387.47774 
L 118.244416 390.093022 
" style="fill:none;stroke:#000000;stroke-linecap:square;stroke-width:0.8;"/>
    </g>
    <g id="text_1">
     <!-- 0 -->
     <g transform="translate(109.587108 411.689671)scale(0.1 -0.1)">
      <defs>
       <path d="M 31.78125 66.40625 
Q 24.171875 66.40625 20.328125 58.90625 
Q 16.5 51.421875 16.5 36.375 
Q 16.5 21.390625 20.328125 13.890625 
Q 24.171875 6.390625 31.78125 6.390625 
Q 39.453125 6.390625 43.28125 13.890625 
Q 47.125 21.390625 47.125 36.375 
Q 47.125 51.421875 43.28125 58.90625 
Q 39.453125 66.40625 31.78125 66.40625 
z
M 31.78125 74.21875 
Q 44.046875 74.21875 50.515625 64.515625 
Q 56.984375 54.828125 56.984375 36.375 
Q 56.984375 17.96875 50.515625 8.265625 
Q 44.046875 -1.421875 31.78125 -1.421875 
Q 19.53125 -1.421875 13.0625 8.265625 
Q 6.59375 17.96875 6.59375 36.375 
Q 6.59375 54.828125 13.0625 64.515625 
Q 19.53125 74.21875 31.78125 74.21875 
z
" id="DejaVuSans-48"/>
      </defs>
      <use xlink:href="#DejaVuSans-48"/>
     </g>
    </g>
   </g>
   <g id="xtick_2">
    <g id="line2d_3">
     <path d="M 159.887155 400.067595 
L 156.882925 402.737374 
" style="fill:none;stroke:#000000;stroke-linecap:square;stroke-width:0.8;"/>
    </g>
    <g id="text_2">
     <!-- 50 -->
     <g transform="translate(145.039717 424.496572)scale(0.1 -0.1)">
      <defs>
       <path d="M 10.796875 72.90625 
L 49.515625 72.90625 
L 49.515625 64.59375 
L 19.828125 64.59375 
L 19.828125 46.734375 
Q 21.96875 47.46875 24.109375 47.828125 
Q 26.265625 48.1875 28.421875 48.1875 
Q 40.625 48.1875 47.75 41.5 
Q 54.890625 34.8125 54.890625 23.390625 
Q 54.890625 11.625 47.5625 5.09375 
Q 40.234375 -1.421875 26.90625 -1.421875 
Q 22.3125 -1.421875 17.546875 -0.640625 
Q 12.796875 0.140625 7.71875 1.703125 
L 7.71875 11.625 
Q 12.109375 9.234375 16.796875 8.0625 
Q 21.484375 6.890625 26.703125 6.890625 
Q 35.15625 6.890625 40.078125 11.328125 
Q 45.015625 15.765625 45.015625 23.390625 
Q 45.015625 31 40.078125 35.4375 
Q 35.15625 39.890625 26.703125 39.890625 
Q 22.75 39.890625 18.8125 39.015625 
Q 14.890625 38.140625 10.796875 36.28125 
z
" id="DejaVuSans-53"/>
      </defs>
      <use xlink:href="#DejaVuSans-53"/>
      <use x="63.623047" xlink:href="#DejaVuSans-48"/>
     </g>
    </g>
   </g>
   <g id="xtick_3">
    <g id="line2d_4">
     <path d="M 199.280939 412.92089 
L 196.331716 415.646889 
" style="fill:none;stroke:#000000;stroke-linecap:square;stroke-width:0.8;"/>
    </g>
    <g id="text_3">
     <!-- 100 -->
     <g transform="translate(181.303617 437.572411)scale(0.1 -0.1)">
      <defs>
       <path d="M 12.40625 8.296875 
L 28.515625 8.296875 
L 28.515625 63.921875 
L 10.984375 60.40625 
L 10.984375 69.390625 
L 28.421875 72.90625 
L 38.28125 72.90625 
L 38.28125 8.296875 
L 54.390625 8.296875 
L 54.390625 0 
L 12.40625 0 
z
" id="DejaVuSans-49"/>
      </defs>
      <use xlink:href="#DejaVuSans-49"/>
      <use x="63.623047" xlink:href="#DejaVuSans-48"/>
      <use x="127.246094" xlink:href="#DejaVuSans-48"/>
     </g>
    </g>
   </g>
   <g id="xtick_4">
    <g id="line2d_5">
     <path d="M 239.507749 426.045983 
L 236.616546 428.829995 
" style="fill:none;stroke:#000000;stroke-linecap:square;stroke-width:0.8;"/>
    </g>
    <g id="text_4">
     <!-- 150 -->
     <g transform="translate(221.585885 450.92575)scale(0.1 -0.1)">
      <use xlink:href="#DejaVuSans-49"/>
      <use x="63.623047" xlink:href="#DejaVuSans-53"/>
      <use x="127.246094" xlink:href="#DejaVuSans-48"/>
     </g>
    </g>
   </g>
   <g id="xtick_5">
    <g id="line2d_6">
     <path d="M 280.594289 439.451587 
L 277.764279 442.295484 
" style="fill:none;stroke:#000000;stroke-linecap:square;stroke-width:0.8;"/>
    </g>
    <g id="text_5">
     <!-- 200 -->
     <g transform="translate(262.732203 464.565517)scale(0.1 -0.1)">
      <defs>
       <path d="M 19.1875 8.296875 
L 53.609375 8.296875 
L 53.609375 0 
L 7.328125 0 
L 7.328125 8.296875 
Q 12.9375 14.109375 22.625 23.890625 
Q 32.328125 33.6875 34.8125 36.53125 
Q 39.546875 41.84375 41.421875 45.53125 
Q 43.3125 49.21875 43.3125 52.78125 
Q 43.3125 58.59375 39.234375 62.25 
Q 35.15625 65.921875 28.609375 65.921875 
Q 23.96875 65.921875 18.8125 64.3125 
Q 13.671875 62.703125 7.8125 59.421875 
L 7.8125 69.390625 
Q 13.765625 71.78125 18.9375 73 
Q 24.125 74.21875 28.421875 74.21875 
Q 39.75 74.21875 46.484375 68.546875 
Q 53.21875 62.890625 53.21875 53.421875 
Q 53.21875 48.921875 51.53125 44.890625 
Q 49.859375 40.875 45.40625 35.40625 
Q 44.1875 33.984375 37.640625 27.21875 
Q 31.109375 20.453125 19.1875 8.296875 
z
" id="DejaVuSans-50"/>
      </defs>
      <use xlink:href="#DejaVuSans-50"/>
      <use x="63.623047" xlink:href="#DejaVuSans-48"/>
      <use x="127.246094" xlink:href="#DejaVuSans-48"/>
     </g>
    </g>
   </g>
  </g>
  <g id="axis3d_2">
   <g id="line2d_7">
    <path d="M 406.137594 337.536699 
L 299.568543 446.902762 
" style="fill:none;stroke:#000000;stroke-linecap:square;stroke-width:0.8;"/>
   </g>
   <g id="Line3DCollection_2">
    <path d="M 112.640205 214.853729 
L 118.903126 364.673139 
L 317.651665 428.34503 
" style="fill:none;stroke:#b0b0b0;stroke-width:0.8;"/>
    <path d="M 132.921096 200.053659 
L 138.221277 348.480282 
L 335.146744 410.390775 
" style="fill:none;stroke:#b0b0b0;stroke-width:0.8;"/>
    <path d="M 152.634634 185.667616 
L 157.022084 332.721073 
L 352.149004 392.942274 
" style="fill:none;stroke:#b0b0b0;stroke-width:0.8;"/>
    <path d="M 171.804301 171.678467 
L 175.326054 317.378322 
L 368.678978 375.978454 
" style="fill:none;stroke:#b0b0b0;stroke-width:0.8;"/>
    <path d="M 190.452295 158.07001 
L 193.152626 302.435736 
L 384.756074 359.479398 
" style="fill:none;stroke:#b0b0b0;stroke-width:0.8;"/>
    <path d="M 208.599626 144.826914 
L 210.520236 287.877861 
L 400.398654 343.426263 
" style="fill:none;stroke:#b0b0b0;stroke-width:0.8;"/>
   </g>
   <g id="xtick_6">
    <g id="line2d_8">
     <path d="M 315.97754 427.808701 
L 321.004206 429.419064 
" style="fill:none;stroke:#000000;stroke-linecap:square;stroke-width:0.8;"/>
    </g>
    <g id="text_6">
     <!-- −500 -->
     <g transform="translate(316.689781 449.243452)scale(0.1 -0.1)">
      <defs>
       <path d="M 10.59375 35.5 
L 73.1875 35.5 
L 73.1875 27.203125 
L 10.59375 27.203125 
z
" id="DejaVuSans-8722"/>
      </defs>
      <use xlink:href="#DejaVuSans-8722"/>
      <use x="83.789062" xlink:href="#DejaVuSans-53"/>
      <use x="147.412109" xlink:href="#DejaVuSans-48"/>
      <use x="211.035156" xlink:href="#DejaVuSans-48"/>
     </g>
    </g>
   </g>
   <g id="xtick_7">
    <g id="line2d_9">
     <path d="M 333.489167 409.869657 
L 338.466089 411.434328 
" style="fill:none;stroke:#000000;stroke-linecap:square;stroke-width:0.8;"/>
    </g>
    <g id="text_7">
     <!-- −400 -->
     <g transform="translate(334.009955 431.091286)scale(0.1 -0.1)">
      <defs>
       <path d="M 37.796875 64.3125 
L 12.890625 25.390625 
L 37.796875 25.390625 
z
M 35.203125 72.90625 
L 47.609375 72.90625 
L 47.609375 25.390625 
L 58.015625 25.390625 
L 58.015625 17.1875 
L 47.609375 17.1875 
L 47.609375 0 
L 37.796875 0 
L 37.796875 17.1875 
L 4.890625 17.1875 
L 4.890625 26.703125 
z
" id="DejaVuSans-52"/>
      </defs>
      <use xlink:href="#DejaVuSans-8722"/>
      <use x="83.789062" xlink:href="#DejaVuSans-52"/>
      <use x="147.412109" xlink:href="#DejaVuSans-48"/>
      <use x="211.035156" xlink:href="#DejaVuSans-48"/>
     </g>
    </g>
   </g>
   <g id="xtick_8">
    <g id="line2d_10">
     <path d="M 350.507711 392.435729 
L 355.435678 393.956626 
" style="fill:none;stroke:#000000;stroke-linecap:square;stroke-width:0.8;"/>
    </g>
    <g id="text_8">
     <!-- −300 -->
     <g transform="translate(350.842025 413.450671)scale(0.1 -0.1)">
      <defs>
       <path d="M 40.578125 39.3125 
Q 47.65625 37.796875 51.625 33 
Q 55.609375 28.21875 55.609375 21.1875 
Q 55.609375 10.40625 48.1875 4.484375 
Q 40.765625 -1.421875 27.09375 -1.421875 
Q 22.515625 -1.421875 17.65625 -0.515625 
Q 12.796875 0.390625 7.625 2.203125 
L 7.625 11.71875 
Q 11.71875 9.328125 16.59375 8.109375 
Q 21.484375 6.890625 26.8125 6.890625 
Q 36.078125 6.890625 40.9375 10.546875 
Q 45.796875 14.203125 45.796875 21.1875 
Q 45.796875 27.640625 41.28125 31.265625 
Q 36.765625 34.90625 28.71875 34.90625 
L 20.21875 34.90625 
L 20.21875 43.015625 
L 29.109375 43.015625 
Q 36.375 43.015625 40.234375 45.921875 
Q 44.09375 48.828125 44.09375 54.296875 
Q 44.09375 59.90625 40.109375 62.90625 
Q 36.140625 65.921875 28.71875 65.921875 
Q 24.65625 65.921875 20.015625 65.03125 
Q 15.375 64.15625 9.8125 62.3125 
L 9.8125 71.09375 
Q 15.4375 72.65625 20.34375 73.4375 
Q 25.25 74.21875 29.59375 74.21875 
Q 40.828125 74.21875 47.359375 69.109375 
Q 53.90625 64.015625 53.90625 55.328125 
Q 53.90625 49.265625 50.4375 45.09375 
Q 46.96875 40.921875 40.578125 39.3125 
z
" id="DejaVuSans-51"/>
      </defs>
      <use xlink:href="#DejaVuSans-8722"/>
      <use x="83.789062" xlink:href="#DejaVuSans-51"/>
      <use x="147.412109" xlink:href="#DejaVuSans-48"/>
      <use x="211.035156" xlink:href="#DejaVuSans-48"/>
     </g>
    </g>
   </g>
   <g id="xtick_9">
    <g id="line2d_11">
     <path d="M 367.053711 375.485879 
L 371.933503 376.964815 
" style="fill:none;stroke:#000000;stroke-linecap:square;stroke-width:0.8;"/>
    </g>
    <g id="text_9">
     <!-- −200 -->
     <g transform="translate(367.206339 396.30028)scale(0.1 -0.1)">
      <use xlink:href="#DejaVuSans-8722"/>
      <use x="83.789062" xlink:href="#DejaVuSans-50"/>
      <use x="147.412109" xlink:href="#DejaVuSans-48"/>
      <use x="211.035156" xlink:href="#DejaVuSans-48"/>
     </g>
    </g>
   </g>
   <g id="xtick_10">
    <g id="line2d_12">
     <path d="M 383.146578 359.000223 
L 387.978967 360.438909 
" style="fill:none;stroke:#000000;stroke-linecap:square;stroke-width:0.8;"/>
    </g>
    <g id="text_10">
     <!-- −100 -->
     <g transform="translate(383.122127 379.619961)scale(0.1 -0.1)">
      <use xlink:href="#DejaVuSans-8722"/>
      <use x="83.789062" xlink:href="#DejaVuSans-49"/>
      <use x="147.412109" xlink:href="#DejaVuSans-48"/>
      <use x="211.035156" xlink:href="#DejaVuSans-48"/>
     </g>
    </g>
   </g>
   <g id="xtick_11">
    <g id="line2d_13">
     <path d="M 398.804675 342.959949 
L 403.590423 344.360006 
" style="fill:none;stroke:#000000;stroke-linecap:square;stroke-width:0.8;"/>
    </g>
    <g id="text_11">
     <!-- 0 -->
     <g transform="translate(409.159925 363.390648)scale(0.1 -0.1)">
      <use xlink:href="#DejaVuSans-48"/>
     </g>
    </g>
   </g>
  </g>
  <g id="axis3d_3">
   <g id="line2d_14">
    <path d="M 406.137594 337.536699 
L 412.890898 190.061788 
" style="fill:none;stroke:#000000;stroke-linecap:square;stroke-width:0.8;"/>
   </g>
   <g id="Line3DCollection_3">
    <path d="M 406.551075 328.507335 
L 216.797138 273.786108 
L 98.519812 372.140562 
" style="fill:none;stroke:#b0b0b0;stroke-width:0.8;"/>
    <path d="M 407.603225 305.531056 
L 216.541337 251.541013 
L 97.386506 348.606737 
" style="fill:none;stroke:#b0b0b0;stroke-width:0.8;"/>
    <path d="M 408.670125 282.232693 
L 216.282122 228.999029 
L 96.236706 324.730388 
" style="fill:none;stroke:#b0b0b0;stroke-width:0.8;"/>
    <path d="M 409.752086 258.605426 
L 216.019424 206.154174 
L 95.070048 300.503985 
" style="fill:none;stroke:#b0b0b0;stroke-width:0.8;"/>
    <path d="M 410.84943 234.64224 
L 215.753173 183.000301 
L 93.88616 275.91977 
" style="fill:none;stroke:#b0b0b0;stroke-width:0.8;"/>
    <path d="M 411.962487 210.33592 
L 215.483296 159.531098 
L 92.684656 250.969759 
" style="fill:none;stroke:#b0b0b0;stroke-width:0.8;"/>
   </g>
   <g id="xtick_12">
    <g id="line2d_15">
     <path d="M 404.958312 328.048015 
L 409.740398 329.427072 
" style="fill:none;stroke:#000000;stroke-linecap:square;stroke-width:0.8;"/>
    </g>
    <g id="text_12">
     <!-- −50 -->
     <g transform="translate(414.310375 333.511893)scale(0.1 -0.1)">
      <use xlink:href="#DejaVuSans-8722"/>
      <use x="83.789062" xlink:href="#DejaVuSans-53"/>
      <use x="147.412109" xlink:href="#DejaVuSans-48"/>
     </g>
    </g>
   </g>
   <g id="xtick_13">
    <g id="line2d_16">
     <path d="M 405.99896 305.077725 
L 410.815607 306.438808 
" style="fill:none;stroke:#000000;stroke-linecap:square;stroke-width:0.8;"/>
    </g>
    <g id="text_13">
     <!-- 0 -->
     <g transform="translate(422.85841 310.569471)scale(0.1 -0.1)">
      <use xlink:href="#DejaVuSans-48"/>
     </g>
    </g>
   </g>
   <g id="xtick_14">
    <g id="line2d_17">
     <path d="M 407.054191 281.785565 
L 411.905901 283.128031 
" style="fill:none;stroke:#000000;stroke-linecap:square;stroke-width:0.8;"/>
    </g>
    <g id="text_14">
     <!-- 50 -->
     <g transform="translate(420.870563 287.30617)scale(0.1 -0.1)">
      <use xlink:href="#DejaVuSans-53"/>
      <use x="63.623047" xlink:href="#DejaVuSans-48"/>
     </g>
    </g>
   </g>
   <g id="xtick_15">
    <g id="line2d_18">
     <path d="M 408.124312 258.164722 
L 413.011599 259.487908 
" style="fill:none;stroke:#000000;stroke-linecap:square;stroke-width:0.8;"/>
    </g>
    <g id="text_15">
     <!-- 100 -->
     <g transform="translate(418.899524 263.715212)scale(0.1 -0.1)">
      <use xlink:href="#DejaVuSans-49"/>
      <use x="63.623047" xlink:href="#DejaVuSans-48"/>
      <use x="127.246094" xlink:href="#DejaVuSans-48"/>
     </g>
    </g>
   </g>
   <g id="xtick_16">
    <g id="line2d_19">
     <path d="M 409.209641 234.208188 
L 414.13303 235.511408 
" style="fill:none;stroke:#000000;stroke-linecap:square;stroke-width:0.8;"/>
    </g>
    <g id="text_16">
     <!-- 150 -->
     <g transform="translate(420.126902 239.789625)scale(0.1 -0.1)">
      <use xlink:href="#DejaVuSans-49"/>
      <use x="63.623047" xlink:href="#DejaVuSans-53"/>
      <use x="127.246094" xlink:href="#DejaVuSans-48"/>
     </g>
    </g>
   </g>
   <g id="xtick_17">
    <g id="line2d_20">
     <path d="M 410.310505 209.908757 
L 415.270532 211.191301 
" style="fill:none;stroke:#000000;stroke-linecap:square;stroke-width:0.8;"/>
    </g>
    <g id="text_17">
     <!-- 200 -->
     <g transform="translate(421.371814 215.522238)scale(0.1 -0.1)">
      <use xlink:href="#DejaVuSans-50"/>
      <use x="63.623047" xlink:href="#DejaVuSans-48"/>
      <use x="127.246094" xlink:href="#DejaVuSans-48"/>
     </g>
    </g>
   </g>
  </g>
  <g id="axes_1">
   <g id="Path3DCollection_1">
    <defs>
     <path d="M 0 2.236068 
C 0.593012 2.236068 1.161816 2.000462 1.581139 1.581139 
C 2.000462 1.161816 2.236068 0.593012 2.236068 -0 
C 2.236068 -0.593012 2.000462 -1.161816 1.581139 -1.581139 
C 1.161816 -2.000462 0.593012 -2.236068 0 -2.236068 
C -0.593012 -2.236068 -1.161816 -2.000462 -1.581139 -1.581139 
C -2.000462 -1.161816 -2.236068 -0.593012 -2.236068 0 
C -2.236068 0.593012 -2.000462 1.161816 -1.581139 1.581139 
C -1.161816 2.000462 -0.593012 2.236068 0 2.236068 
z
" id="C0_0_1658473990"/>
    </defs>
    <g clip-path="url(#p85695a9faa)">
     <use style="fill-opacity:0.3;stroke:#000000;stroke-opacity:0.3;" x="231.510306" xlink:href="#C0_0_1658473990" y="263.18514"/>
    </g>
    <g clip-path="url(#p85695a9faa)">
     <use style="fill-opacity:0.300001;stroke:#000000;stroke-opacity:0.300001;" x="231.518627" xlink:href="#C0_0_1658473990" y="263.181816"/>
    </g>
    <g clip-path="url(#p85695a9faa)">
     <use style="fill-opacity:0.300007;stroke:#000000;stroke-opacity:0.300007;" x="231.528822" xlink:href="#C0_0_1658473990" y="263.179768"/>
    </g>
    <g clip-path="url(#p85695a9faa)">
     <use style="fill-opacity:0.300015;stroke:#000000;stroke-opacity:0.300015;" x="231.54014" xlink:href="#C0_0_1658473990" y="263.178241"/>
    </g>
    <g clip-path="url(#p85695a9faa)">
     <use style="fill-opacity:0.30002;stroke:#000000;stroke-opacity:0.30002;" x="231.551203" xlink:href="#C0_0_1658473990" y="263.176339"/>
    </g>
    <g clip-path="url(#p85695a9faa)">
     <use style="fill-opacity:0.300034;stroke:#000000;stroke-opacity:0.300034;" x="231.562156" xlink:href="#C0_0_1658473990" y="263.173609"/>
    </g>
    <g clip-path="url(#p85695a9faa)">
     <use style="fill-opacity:0.300063;stroke:#000000;stroke-opacity:0.300063;" x="231.571054" xlink:href="#C0_0_1658473990" y="263.167391"/>
    </g>
    <g clip-path="url(#p85695a9faa)">
     <use style="fill-opacity:0.300385;stroke:#000000;stroke-opacity:0.300385;" x="231.500714" xlink:href="#C0_0_1658473990" y="263.069276"/>
    </g>
    <g clip-path="url(#p85695a9faa)">
     <use style="fill-opacity:0.300709;stroke:#000000;stroke-opacity:0.300709;" x="231.428656" xlink:href="#C0_0_1658473990" y="262.969559"/>
    </g>
    <g clip-path="url(#p85695a9faa)">
     <use style="fill-opacity:0.301058;stroke:#000000;stroke-opacity:0.301058;" x="231.354932" xlink:href="#C0_0_1658473990" y="262.867471"/>
    </g>
    <g clip-path="url(#p85695a9faa)">
     <use style="fill-opacity:0.30161;stroke:#000000;stroke-opacity:0.30161;" x="231.261791" xlink:href="#C0_0_1658473990" y="262.741766"/>
    </g>
    <g clip-path="url(#p85695a9faa)">
     <use style="fill-opacity:0.302155;stroke:#000000;stroke-opacity:0.302155;" x="231.170679" xlink:href="#C0_0_1658473990" y="262.618255"/>
    </g>
    <g clip-path="url(#p85695a9faa)">
     <use style="fill-opacity:0.302594;stroke:#000000;stroke-opacity:0.302594;" x="231.720888" xlink:href="#C0_0_1658473990" y="263.822067"/>
    </g>
    <g clip-path="url(#p85695a9faa)">
     <use style="fill-opacity:0.3027;stroke:#000000;stroke-opacity:0.3027;" x="231.080478" xlink:href="#C0_0_1658473990" y="262.495628"/>
    </g>
    <g clip-path="url(#p85695a9faa)">
     <use style="fill-opacity:0.303263;stroke:#000000;stroke-opacity:0.303263;" x="230.985504" xlink:href="#C0_0_1658473990" y="262.367869"/>
    </g>
    <g clip-path="url(#p85695a9faa)">
     <use style="fill-opacity:0.303846;stroke:#000000;stroke-opacity:0.303846;" x="230.896254" xlink:href="#C0_0_1658473990" y="262.248494"/>
    </g>
    <g clip-path="url(#p85695a9faa)">
     <use style="fill-opacity:0.305918;stroke:#000000;stroke-opacity:0.305918;" x="230.5289" xlink:href="#C0_0_1658473990" y="261.962175"/>
    </g>
    <g clip-path="url(#p85695a9faa)">
     <use style="fill-opacity:0.307827;stroke:#000000;stroke-opacity:0.307827;" x="232.26104" xlink:href="#C0_0_1658473990" y="265.119741"/>
    </g>
    <g clip-path="url(#p85695a9faa)">
     <use style="fill-opacity:0.308291;stroke:#000000;stroke-opacity:0.308291;" x="230.104919" xlink:href="#C0_0_1658473990" y="261.642476"/>
    </g>
    <g clip-path="url(#p85695a9faa)">
     <use style="fill-opacity:0.310792;stroke:#000000;stroke-opacity:0.310792;" x="229.656169" xlink:href="#C0_0_1658473990" y="261.305237"/>
    </g>
    <g clip-path="url(#p85695a9faa)">
     <use style="fill-opacity:0.313323;stroke:#000000;stroke-opacity:0.313323;" x="229.201847" xlink:href="#C0_0_1658473990" y="260.966933"/>
    </g>
    <g clip-path="url(#p85695a9faa)">
     <use style="fill-opacity:0.316316;stroke:#000000;stroke-opacity:0.316316;" x="228.66245" xlink:href="#C0_0_1658473990" y="260.541925"/>
    </g>
    <g clip-path="url(#p85695a9faa)">
     <use style="fill-opacity:0.319371;stroke:#000000;stroke-opacity:0.319371;" x="233.288414" xlink:href="#C0_0_1658473990" y="267.860275"/>
    </g>
    <g clip-path="url(#p85695a9faa)">
     <use style="fill-opacity:0.323533;stroke:#000000;stroke-opacity:0.323533;" x="227.535648" xlink:href="#C0_0_1658473990" y="259.404553"/>
    </g>
    <g clip-path="url(#p85695a9faa)">
     <use style="fill-opacity:0.331946;stroke:#000000;stroke-opacity:0.331946;" x="226.286354" xlink:href="#C0_0_1658473990" y="258.092736"/>
    </g>
    <g clip-path="url(#p85695a9faa)">
     <use style="fill-opacity:0.33383;stroke:#000000;stroke-opacity:0.33383;" x="234.487418" xlink:href="#C0_0_1658473990" y="271.366615"/>
    </g>
    <g clip-path="url(#p85695a9faa)">
     <use style="fill-opacity:0.340478;stroke:#000000;stroke-opacity:0.340478;" x="225.018879" xlink:href="#C0_0_1658473990" y="256.761546"/>
    </g>
    <g clip-path="url(#p85695a9faa)">
     <use style="fill-opacity:0.348199;stroke:#000000;stroke-opacity:0.348199;" x="235.685277" xlink:href="#C0_0_1658473990" y="274.825611"/>
    </g>
    <g clip-path="url(#p85695a9faa)">
     <use style="fill-opacity:0.349041;stroke:#000000;stroke-opacity:0.349041;" x="223.745151" xlink:href="#C0_0_1658473990" y="255.4218"/>
    </g>
    <g clip-path="url(#p85695a9faa)">
     <use style="fill-opacity:0.357536;stroke:#000000;stroke-opacity:0.357536;" x="222.483094" xlink:href="#C0_0_1658473990" y="254.092287"/>
    </g>
    <g clip-path="url(#p85695a9faa)">
     <use style="fill-opacity:0.364724;stroke:#000000;stroke-opacity:0.364724;" x="237.090513" xlink:href="#C0_0_1658473990" y="278.691144"/>
    </g>
    <g clip-path="url(#p85695a9faa)">
     <use style="fill-opacity:0.366098;stroke:#000000;stroke-opacity:0.366098;" x="221.211053" xlink:href="#C0_0_1658473990" y="252.751684"/>
    </g>
    <g clip-path="url(#p85695a9faa)">
     <use style="fill-opacity:0.376383;stroke:#000000;stroke-opacity:0.376383;" x="219.695693" xlink:href="#C0_0_1658473990" y="251.230352"/>
    </g>
    <g clip-path="url(#p85695a9faa)">
     <use style="fill-opacity:0.386592;stroke:#000000;stroke-opacity:0.386592;" x="218.190032" xlink:href="#C0_0_1658473990" y="249.721919"/>
    </g>
    <g clip-path="url(#p85695a9faa)">
     <use style="fill-opacity:0.38762;stroke:#000000;stroke-opacity:0.38762;" x="239.179821" xlink:href="#C0_0_1658473990" y="284.030672"/>
    </g>
    <g clip-path="url(#p85695a9faa)">
     <use style="fill-opacity:0.396322;stroke:#000000;stroke-opacity:0.396322;" x="216.733121" xlink:href="#C0_0_1658473990" y="248.290768"/>
    </g>
    <g clip-path="url(#p85695a9faa)">
     <use style="fill-opacity:0.406193;stroke:#000000;stroke-opacity:0.406193;" x="215.240104" xlink:href="#C0_0_1658473990" y="246.844262"/>
    </g>
    <g clip-path="url(#p85695a9faa)">
     <use style="fill-opacity:0.410368;stroke:#000000;stroke-opacity:0.410368;" x="241.24526" xlink:href="#C0_0_1658473990" y="289.332916"/>
    </g>
    <g clip-path="url(#p85695a9faa)">
     <use style="fill-opacity:0.416858;stroke:#000000;stroke-opacity:0.416858;" x="213.567079" xlink:href="#C0_0_1658473990" y="245.305902"/>
    </g>
    <g clip-path="url(#p85695a9faa)">
     <use style="fill-opacity:0.427323;stroke:#000000;stroke-opacity:0.427323;" x="211.925309" xlink:href="#C0_0_1658473990" y="243.796631"/>
    </g>
    <g clip-path="url(#p85695a9faa)">
     <use style="fill-opacity:0.433197;stroke:#000000;stroke-opacity:0.433197;" x="243.327693" xlink:href="#C0_0_1658473990" y="294.661132"/>
    </g>
    <g clip-path="url(#p85695a9faa)">
     <use style="fill-opacity:0.438279;stroke:#000000;stroke-opacity:0.438279;" x="210.179751" xlink:href="#C0_0_1658473990" y="242.185946"/>
    </g>
    <g clip-path="url(#p85695a9faa)">
     <use style="fill-opacity:0.449976;stroke:#000000;stroke-opacity:0.449976;" x="208.296181" xlink:href="#C0_0_1658473990" y="240.443833"/>
    </g>
    <g clip-path="url(#p85695a9faa)">
     <use style="fill-opacity:0.455952;stroke:#000000;stroke-opacity:0.455952;" x="245.402759" xlink:href="#C0_0_1658473990" y="299.971235"/>
    </g>
    <g clip-path="url(#p85695a9faa)">
     <use style="fill-opacity:0.461725;stroke:#000000;stroke-opacity:0.461725;" x="206.401715" xlink:href="#C0_0_1658473990" y="238.696638"/>
    </g>
    <g clip-path="url(#p85695a9faa)">
     <use style="fill-opacity:0.473363;stroke:#000000;stroke-opacity:0.473363;" x="204.520385" xlink:href="#C0_0_1658473990" y="236.967171"/>
    </g>
    <g clip-path="url(#p85695a9faa)">
     <use style="fill-opacity:0.478138;stroke:#000000;stroke-opacity:0.478138;" x="247.420948" xlink:href="#C0_0_1658473990" y="305.144002"/>
    </g>
    <g clip-path="url(#p85695a9faa)">
     <use style="fill-opacity:0.484905;stroke:#000000;stroke-opacity:0.484905;" x="202.650015" xlink:href="#C0_0_1658473990" y="235.250091"/>
    </g>
    <g clip-path="url(#p85695a9faa)">
     <use style="fill-opacity:0.496655;stroke:#000000;stroke-opacity:0.496655;" x="200.742569" xlink:href="#C0_0_1658473990" y="233.501977"/>
    </g>
    <g clip-path="url(#p85695a9faa)">
     <use style="fill-opacity:0.500241;stroke:#000000;stroke-opacity:0.500241;" x="249.406572" xlink:href="#C0_0_1658473990" y="310.283123"/>
    </g>
    <g clip-path="url(#p85695a9faa)">
     <use style="fill-opacity:0.509044;stroke:#000000;stroke-opacity:0.509044;" x="198.728961" xlink:href="#C0_0_1658473990" y="231.659111"/>
    </g>
    <g clip-path="url(#p85695a9faa)">
     <use style="fill-opacity:0.521751;stroke:#000000;stroke-opacity:0.521751;" x="196.664031" xlink:href="#C0_0_1658473990" y="229.769657"/>
    </g>
    <g clip-path="url(#p85695a9faa)">
     <use style="fill-opacity:0.522672;stroke:#000000;stroke-opacity:0.522672;" x="251.412881" xlink:href="#C0_0_1658473990" y="315.476022"/>
    </g>
    <g clip-path="url(#p85695a9faa)">
     <use style="fill-opacity:0.534116;stroke:#000000;stroke-opacity:0.534116;" x="194.651022" xlink:href="#C0_0_1658473990" y="227.931257"/>
    </g>
    <g clip-path="url(#p85695a9faa)">
     <use style="fill-opacity:0.545593;stroke:#000000;stroke-opacity:0.545593;" x="253.466129" xlink:href="#C0_0_1658473990" y="320.775087"/>
    </g>
    <g clip-path="url(#p85695a9faa)">
     <use style="fill-opacity:0.545817;stroke:#000000;stroke-opacity:0.545817;" x="192.740486" xlink:href="#C0_0_1658473990" y="226.192732"/>
    </g>
    <g clip-path="url(#p85695a9faa)">
     <use style="fill-opacity:0.557325;stroke:#000000;stroke-opacity:0.557325;" x="190.860493" xlink:href="#C0_0_1658473990" y="224.483816"/>
    </g>
    <g clip-path="url(#p85695a9faa)">
     <use style="fill-opacity:0.568627;stroke:#000000;stroke-opacity:0.568627;" x="255.537119" xlink:href="#C0_0_1658473990" y="326.102159"/>
    </g>
    <g clip-path="url(#p85695a9faa)">
     <use style="fill-opacity:0.568744;stroke:#000000;stroke-opacity:0.568744;" x="188.993815" xlink:href="#C0_0_1658473990" y="222.788869"/>
    </g>
    <g clip-path="url(#p85695a9faa)">
     <use style="fill-opacity:0.580189;stroke:#000000;stroke-opacity:0.580189;" x="187.12243" xlink:href="#C0_0_1658473990" y="221.089702"/>
    </g>
    <g clip-path="url(#p85695a9faa)">
     <use style="fill-opacity:0.591394;stroke:#000000;stroke-opacity:0.591394;" x="257.575892" xlink:href="#C0_0_1658473990" y="331.365559"/>
    </g>
    <g clip-path="url(#p85695a9faa)">
     <use style="fill-opacity:0.591565;stroke:#000000;stroke-opacity:0.591565;" x="185.262174" xlink:href="#C0_0_1658473990" y="219.40054"/>
    </g>
    <g clip-path="url(#p85695a9faa)">
     <use style="fill-opacity:0.602661;stroke:#000000;stroke-opacity:0.602661;" x="183.449829" xlink:href="#C0_0_1658473990" y="217.751255"/>
    </g>
    <g clip-path="url(#p85695a9faa)">
     <use style="fill-opacity:0.612884;stroke:#000000;stroke-opacity:0.612884;" x="181.778235" xlink:href="#C0_0_1658473990" y="216.231544"/>
    </g>
    <g clip-path="url(#p85695a9faa)">
     <use style="fill-opacity:0.614151;stroke:#000000;stroke-opacity:0.614151;" x="259.618582" xlink:href="#C0_0_1658473990" y="336.627547"/>
    </g>
    <g clip-path="url(#p85695a9faa)">
     <use style="fill-opacity:0.62256;stroke:#000000;stroke-opacity:0.62256;" x="180.193265" xlink:href="#C0_0_1658473990" y="214.79402"/>
    </g>
    <g clip-path="url(#p85695a9faa)">
     <use style="fill-opacity:0.632259;stroke:#000000;stroke-opacity:0.632259;" x="178.60345" xlink:href="#C0_0_1658473990" y="213.352337"/>
    </g>
    <g clip-path="url(#p85695a9faa)">
     <use style="fill-opacity:0.636745;stroke:#000000;stroke-opacity:0.636745;" x="261.639783" xlink:href="#C0_0_1658473990" y="341.848954"/>
    </g>
    <g clip-path="url(#p85695a9faa)">
     <use style="fill-opacity:0.643274;stroke:#000000;stroke-opacity:0.643274;" x="176.832742" xlink:href="#C0_0_1658473990" y="211.702853"/>
    </g>
    <g clip-path="url(#p85695a9faa)">
     <use style="fill-opacity:0.65419;stroke:#000000;stroke-opacity:0.65419;" x="175.090527" xlink:href="#C0_0_1658473990" y="210.067435"/>
    </g>
    <g clip-path="url(#p85695a9faa)">
     <use style="fill-opacity:0.659099;stroke:#000000;stroke-opacity:0.659099;" x="263.636291" xlink:href="#C0_0_1658473990" y="347.015504"/>
    </g>
    <g clip-path="url(#p85695a9faa)">
     <use style="fill-opacity:0.665038;stroke:#000000;stroke-opacity:0.665038;" x="173.359947" xlink:href="#C0_0_1658473990" y="208.440798"/>
    </g>
    <g clip-path="url(#p85695a9faa)">
     <use style="fill-opacity:0.675686;stroke:#000000;stroke-opacity:0.675686;" x="171.663156" xlink:href="#C0_0_1658473990" y="206.846204"/>
    </g>
    <g clip-path="url(#p85695a9faa)">
     <use style="fill-opacity:0.679745;stroke:#000000;stroke-opacity:0.679745;" x="265.4582" xlink:href="#C0_0_1658473990" y="351.77888"/>
    </g>
    <g clip-path="url(#p85695a9faa)">
     <use style="fill-opacity:0.68601;stroke:#000000;stroke-opacity:0.68601;" x="170.019023" xlink:href="#C0_0_1658473990" y="205.302407"/>
    </g>
    <g clip-path="url(#p85695a9faa)">
     <use style="fill-opacity:0.695765;stroke:#000000;stroke-opacity:0.695765;" x="168.472436" xlink:href="#C0_0_1658473990" y="203.843764"/>
    </g>
    <g clip-path="url(#p85695a9faa)">
     <use style="fill-opacity:0.698437;stroke:#000000;stroke-opacity:0.698437;" x="267.099974" xlink:href="#C0_0_1658473990" y="356.083867"/>
    </g>
    <g clip-path="url(#p85695a9faa)">
     <use style="fill-opacity:0.705145;stroke:#000000;stroke-opacity:0.705145;" x="166.985923" xlink:href="#C0_0_1658473990" y="202.443033"/>
    </g>
    <g clip-path="url(#p85695a9faa)">
     <use style="fill-opacity:0.714565;stroke:#000000;stroke-opacity:0.714565;" x="165.495614" xlink:href="#C0_0_1658473990" y="201.037948"/>
    </g>
    <g clip-path="url(#p85695a9faa)">
     <use style="fill-opacity:0.717189;stroke:#000000;stroke-opacity:0.717189;" x="268.74988" xlink:href="#C0_0_1658473990" y="360.398705"/>
    </g>
    <g clip-path="url(#p85695a9faa)">
     <use style="fill-opacity:0.723762;stroke:#000000;stroke-opacity:0.723762;" x="164.046061" xlink:href="#C0_0_1658473990" y="199.66985"/>
    </g>
    <g clip-path="url(#p85695a9faa)">
     <use style="fill-opacity:0.736201;stroke:#000000;stroke-opacity:0.736201;" x="270.419608" xlink:href="#C0_0_1658473990" y="364.773507"/>
    </g>
    <g clip-path="url(#p85695a9faa)">
     <use style="fill-opacity:0.754276;stroke:#000000;stroke-opacity:0.754276;" x="271.99686" xlink:href="#C0_0_1658473990" y="368.930318"/>
    </g>
    <g clip-path="url(#p85695a9faa)">
     <use style="fill-opacity:0.772027;stroke:#000000;stroke-opacity:0.772027;" x="273.543011" xlink:href="#C0_0_1658473990" y="373.010719"/>
    </g>
    <g clip-path="url(#p85695a9faa)">
     <use style="fill-opacity:0.788754;stroke:#000000;stroke-opacity:0.788754;" x="275.007236" xlink:href="#C0_0_1658473990" y="376.858099"/>
    </g>
    <g clip-path="url(#p85695a9faa)">
     <use style="fill-opacity:0.804709;stroke:#000000;stroke-opacity:0.804709;" x="276.405827" xlink:href="#C0_0_1658473990" y="380.529965"/>
    </g>
    <g clip-path="url(#p85695a9faa)">
     <use style="fill-opacity:0.820466;stroke:#000000;stroke-opacity:0.820466;" x="277.791513" xlink:href="#C0_0_1658473990" y="384.157795"/>
    </g>
    <g clip-path="url(#p85695a9faa)">
     <use style="fill-opacity:0.836425;stroke:#000000;stroke-opacity:0.836425;" x="279.200938" xlink:href="#C0_0_1658473990" y="387.835462"/>
    </g>
    <g clip-path="url(#p85695a9faa)">
     <use style="fill-opacity:0.852454;stroke:#000000;stroke-opacity:0.852454;" x="280.624441" xlink:href="#C0_0_1658473990" y="391.533209"/>
    </g>
    <g clip-path="url(#p85695a9faa)">
     <use style="fill-opacity:0.868147;stroke:#000000;stroke-opacity:0.868147;" x="282.025044" xlink:href="#C0_0_1658473990" y="395.157669"/>
    </g>
    <g clip-path="url(#p85695a9faa)">
     <use style="fill-opacity:0.883956;stroke:#000000;stroke-opacity:0.883956;" x="283.439747" xlink:href="#C0_0_1658473990" y="398.81153"/>
    </g>
    <g clip-path="url(#p85695a9faa)">
     <use style="fill-opacity:0.899826;stroke:#000000;stroke-opacity:0.899826;" x="284.859081" xlink:href="#C0_0_1658473990" y="402.479138"/>
    </g>
    <g clip-path="url(#p85695a9faa)">
     <use style="fill-opacity:0.914735;stroke:#000000;stroke-opacity:0.914735;" x="286.191375" xlink:href="#C0_0_1658473990" y="405.919948"/>
    </g>
    <g clip-path="url(#p85695a9faa)">
     <use style="fill-opacity:0.927719;stroke:#000000;stroke-opacity:0.927719;" x="287.343155" xlink:href="#C0_0_1658473990" y="408.90867"/>
    </g>
    <g clip-path="url(#p85695a9faa)">
     <use style="fill-opacity:0.940464;stroke:#000000;stroke-opacity:0.940464;" x="288.467461" xlink:href="#C0_0_1658473990" y="411.839663"/>
    </g>
    <g clip-path="url(#p85695a9faa)">
     <use style="fill-opacity:0.95303;stroke:#000000;stroke-opacity:0.95303;" x="289.575134" xlink:href="#C0_0_1658473990" y="414.72953"/>
    </g>
    <g clip-path="url(#p85695a9faa)">
     <use style="fill-opacity:0.965282;stroke:#000000;stroke-opacity:0.965282;" x="290.656708" xlink:href="#C0_0_1658473990" y="417.54756"/>
    </g>
    <g clip-path="url(#p85695a9faa)">
     <use style="fill-opacity:0.977488;stroke:#000000;stroke-opacity:0.977488;" x="291.730271" xlink:href="#C0_0_1658473990" y="420.35509"/>
    </g>
    <g clip-path="url(#p85695a9faa)">
     <use style="fill-opacity:0.989167;stroke:#000000;stroke-opacity:0.989167;" x="292.753494" xlink:href="#C0_0_1658473990" y="423.042406"/>
    </g>
    <g clip-path="url(#p85695a9faa)">
     <use style="stroke:#000000;" x="293.698928" xlink:href="#C0_0_1658473990" y="425.534168"/>
    </g>
   </g>
   <g id="legend_1">
    <g id="patch_6">
     <path d="M 418.12 125.32 
L 422.12 125.32 
Q 424.12 125.32 424.12 123.32 
L 424.12 119.32 
Q 424.12 117.32 422.12 117.32 
L 418.12 117.32 
Q 416.12 117.32 416.12 119.32 
L 416.12 123.32 
Q 416.12 125.32 418.12 125.32 
z
" style="fill:#ffffff;opacity:0.8;stroke:#cccccc;stroke-linejoin:miter;"/>
    </g>
   </g>
  </g>
  <g id="axes_2">
   <g id="patch_7">
    <path clip-path="url(#pebb9da1263)" d="M 451.44 512.64 
L 451.44 69.12 
L 451.44 512.64 
L 451.44 69.12 
L 473.616 69.12 
L 473.616 512.64 
L 473.616 69.12 
L 473.616 512.64 
z
" style="fill:#ffffff;stroke:#ffffff;stroke-linejoin:miter;stroke-width:0.01;"/>
   </g>
   <g id="QuadMesh_1">
    <path clip-path="url(#pebb9da1263)" d="M 451.44 512.64 
L 473.616 512.64 
L 473.616 69.12 
L 451.44 69.12 
L 451.44 512.64 
"/>
   </g>
   <g id="matplotlib.axis_1"/>
   <g id="matplotlib.axis_2">
    <g id="ytick_1">
     <g id="line2d_21">
      <defs>
       <path d="M 0 0 
L 3.5 0 
" id="m5b83c82d9e" style="stroke:#000000;stroke-width:0.8;"/>
      </defs>
      <g>
       <use style="stroke:#000000;stroke-width:0.8;" x="473.616" xlink:href="#m5b83c82d9e" y="512.64"/>
      </g>
     </g>
     <g id="text_18">
      <!-- 1.80 -->
      <g transform="translate(480.616 516.439219)scale(0.1 -0.1)">
       <defs>
        <path d="M 10.6875 12.40625 
L 21 12.40625 
L 21 0 
L 10.6875 0 
z
" id="DejaVuSans-46"/>
        <path d="M 31.78125 34.625 
Q 24.75 34.625 20.71875 30.859375 
Q 16.703125 27.09375 16.703125 20.515625 
Q 16.703125 13.921875 20.71875 10.15625 
Q 24.75 6.390625 31.78125 6.390625 
Q 38.8125 6.390625 42.859375 10.171875 
Q 46.921875 13.96875 46.921875 20.515625 
Q 46.921875 27.09375 42.890625 30.859375 
Q 38.875 34.625 31.78125 34.625 
z
M 21.921875 38.8125 
Q 15.578125 40.375 12.03125 44.71875 
Q 8.5 49.078125 8.5 55.328125 
Q 8.5 64.0625 14.71875 69.140625 
Q 20.953125 74.21875 31.78125 74.21875 
Q 42.671875 74.21875 48.875 69.140625 
Q 55.078125 64.0625 55.078125 55.328125 
Q 55.078125 49.078125 51.53125 44.71875 
Q 48 40.375 41.703125 38.8125 
Q 48.828125 37.15625 52.796875 32.3125 
Q 56.78125 27.484375 56.78125 20.515625 
Q 56.78125 9.90625 50.3125 4.234375 
Q 43.84375 -1.421875 31.78125 -1.421875 
Q 19.734375 -1.421875 13.25 4.234375 
Q 6.78125 9.90625 6.78125 20.515625 
Q 6.78125 27.484375 10.78125 32.3125 
Q 14.796875 37.15625 21.921875 38.8125 
z
M 18.3125 54.390625 
Q 18.3125 48.734375 21.84375 45.5625 
Q 25.390625 42.390625 31.78125 42.390625 
Q 38.140625 42.390625 41.71875 45.5625 
Q 45.3125 48.734375 45.3125 54.390625 
Q 45.3125 60.0625 41.71875 63.234375 
Q 38.140625 66.40625 31.78125 66.40625 
Q 25.390625 66.40625 21.84375 63.234375 
Q 18.3125 60.0625 18.3125 54.390625 
z
" id="DejaVuSans-56"/>
       </defs>
       <use xlink:href="#DejaVuSans-49"/>
       <use x="63.623047" xlink:href="#DejaVuSans-46"/>
       <use x="95.410156" xlink:href="#DejaVuSans-56"/>
       <use x="159.033203" xlink:href="#DejaVuSans-48"/>
      </g>
     </g>
    </g>
    <g id="ytick_2">
     <g id="line2d_22">
      <g>
       <use style="stroke:#000000;stroke-width:0.8;" x="473.616" xlink:href="#m5b83c82d9e" y="457.2"/>
      </g>
     </g>
     <g id="text_19">
      <!-- 1.85 -->
      <g transform="translate(480.616 460.999219)scale(0.1 -0.1)">
       <use xlink:href="#DejaVuSans-49"/>
       <use x="63.623047" xlink:href="#DejaVuSans-46"/>
       <use x="95.410156" xlink:href="#DejaVuSans-56"/>
       <use x="159.033203" xlink:href="#DejaVuSans-53"/>
      </g>
     </g>
    </g>
    <g id="ytick_3">
     <g id="line2d_23">
      <g>
       <use style="stroke:#000000;stroke-width:0.8;" x="473.616" xlink:href="#m5b83c82d9e" y="401.76"/>
      </g>
     </g>
     <g id="text_20">
      <!-- 1.90 -->
      <g transform="translate(480.616 405.559219)scale(0.1 -0.1)">
       <defs>
        <path d="M 10.984375 1.515625 
L 10.984375 10.5 
Q 14.703125 8.734375 18.5 7.8125 
Q 22.3125 6.890625 25.984375 6.890625 
Q 35.75 6.890625 40.890625 13.453125 
Q 46.046875 20.015625 46.78125 33.40625 
Q 43.953125 29.203125 39.59375 26.953125 
Q 35.25 24.703125 29.984375 24.703125 
Q 19.046875 24.703125 12.671875 31.3125 
Q 6.296875 37.9375 6.296875 49.421875 
Q 6.296875 60.640625 12.9375 67.421875 
Q 19.578125 74.21875 30.609375 74.21875 
Q 43.265625 74.21875 49.921875 64.515625 
Q 56.59375 54.828125 56.59375 36.375 
Q 56.59375 19.140625 48.40625 8.859375 
Q 40.234375 -1.421875 26.421875 -1.421875 
Q 22.703125 -1.421875 18.890625 -0.6875 
Q 15.09375 0.046875 10.984375 1.515625 
z
M 30.609375 32.421875 
Q 37.25 32.421875 41.125 36.953125 
Q 45.015625 41.5 45.015625 49.421875 
Q 45.015625 57.28125 41.125 61.84375 
Q 37.25 66.40625 30.609375 66.40625 
Q 23.96875 66.40625 20.09375 61.84375 
Q 16.21875 57.28125 16.21875 49.421875 
Q 16.21875 41.5 20.09375 36.953125 
Q 23.96875 32.421875 30.609375 32.421875 
z
" id="DejaVuSans-57"/>
       </defs>
       <use xlink:href="#DejaVuSans-49"/>
       <use x="63.623047" xlink:href="#DejaVuSans-46"/>
       <use x="95.410156" xlink:href="#DejaVuSans-57"/>
       <use x="159.033203" xlink:href="#DejaVuSans-48"/>
      </g>
     </g>
    </g>
    <g id="ytick_4">
     <g id="line2d_24">
      <g>
       <use style="stroke:#000000;stroke-width:0.8;" x="473.616" xlink:href="#m5b83c82d9e" y="346.32"/>
      </g>
     </g>
     <g id="text_21">
      <!-- 1.95 -->
      <g transform="translate(480.616 350.119219)scale(0.1 -0.1)">
       <use xlink:href="#DejaVuSans-49"/>
       <use x="63.623047" xlink:href="#DejaVuSans-46"/>
       <use x="95.410156" xlink:href="#DejaVuSans-57"/>
       <use x="159.033203" xlink:href="#DejaVuSans-53"/>
      </g>
     </g>
    </g>
    <g id="ytick_5">
     <g id="line2d_25">
      <g>
       <use style="stroke:#000000;stroke-width:0.8;" x="473.616" xlink:href="#m5b83c82d9e" y="290.88"/>
      </g>
     </g>
     <g id="text_22">
      <!-- 2.00 -->
      <g transform="translate(480.616 294.679219)scale(0.1 -0.1)">
       <use xlink:href="#DejaVuSans-50"/>
       <use x="63.623047" xlink:href="#DejaVuSans-46"/>
       <use x="95.410156" xlink:href="#DejaVuSans-48"/>
       <use x="159.033203" xlink:href="#DejaVuSans-48"/>
      </g>
     </g>
    </g>
    <g id="ytick_6">
     <g id="line2d_26">
      <g>
       <use style="stroke:#000000;stroke-width:0.8;" x="473.616" xlink:href="#m5b83c82d9e" y="235.44"/>
      </g>
     </g>
     <g id="text_23">
      <!-- 2.05 -->
      <g transform="translate(480.616 239.239219)scale(0.1 -0.1)">
       <use xlink:href="#DejaVuSans-50"/>
       <use x="63.623047" xlink:href="#DejaVuSans-46"/>
       <use x="95.410156" xlink:href="#DejaVuSans-48"/>
       <use x="159.033203" xlink:href="#DejaVuSans-53"/>
      </g>
     </g>
    </g>
    <g id="ytick_7">
     <g id="line2d_27">
      <g>
       <use style="stroke:#000000;stroke-width:0.8;" x="473.616" xlink:href="#m5b83c82d9e" y="180"/>
      </g>
     </g>
     <g id="text_24">
      <!-- 2.10 -->
      <g transform="translate(480.616 183.799219)scale(0.1 -0.1)">
       <use xlink:href="#DejaVuSans-50"/>
       <use x="63.623047" xlink:href="#DejaVuSans-46"/>
       <use x="95.410156" xlink:href="#DejaVuSans-49"/>
       <use x="159.033203" xlink:href="#DejaVuSans-48"/>
      </g>
     </g>
    </g>
    <g id="ytick_8">
     <g id="line2d_28">
      <g>
       <use style="stroke:#000000;stroke-width:0.8;" x="473.616" xlink:href="#m5b83c82d9e" y="124.56"/>
      </g>
     </g>
     <g id="text_25">
      <!-- 2.15 -->
      <g transform="translate(480.616 128.359219)scale(0.1 -0.1)">
       <use xlink:href="#DejaVuSans-50"/>
       <use x="63.623047" xlink:href="#DejaVuSans-46"/>
       <use x="95.410156" xlink:href="#DejaVuSans-49"/>
       <use x="159.033203" xlink:href="#DejaVuSans-53"/>
      </g>
     </g>
    </g>
    <g id="ytick_9">
     <g id="line2d_29">
      <g>
       <use style="stroke:#000000;stroke-width:0.8;" x="473.616" xlink:href="#m5b83c82d9e" y="69.12"/>
      </g>
     </g>
     <g id="text_26">
      <!-- 2.20 -->
      <g transform="translate(480.616 72.919219)scale(0.1 -0.1)">
       <use xlink:href="#DejaVuSans-50"/>
       <use x="63.623047" xlink:href="#DejaVuSans-46"/>
       <use x="95.410156" xlink:href="#DejaVuSans-50"/>
       <use x="159.033203" xlink:href="#DejaVuSans-48"/>
      </g>
     </g>
    </g>
   </g>
   <g id="patch_8">
    <path d="M 451.44 512.64 
L 451.44 69.12 
L 451.44 512.64 
L 451.44 69.12 
L 473.616 69.12 
L 473.616 512.64 
L 473.616 69.12 
L 473.616 512.64 
z
" style="fill:none;stroke:#000000;stroke-linejoin:miter;stroke-width:0.8;"/>
   </g>
  </g>
 </g>
 <defs>
  <clipPath id="p85695a9faa">
   <rect height="357.12" width="357.12" x="72" y="112.32"/>
  </clipPath>
  <clipPath id="pebb9da1263">
   <rect height="443.52" width="22.176" x="451.44" y="69.12"/>
  </clipPath>
 </defs>
</svg>
